<?xml version="1.0" standalone="no"?>
<!DOCTYPE svg PUBLIC "-//W3C//DTD SVG 20010904//EN"
 "http://www.w3.org/TR/2001/REC-SVG-20010904/DTD/svg10.dtd">
<svg version="1.0" xmlns="http://www.w3.org/2000/svg"
 width="71.000000pt" height="66.000000pt" viewBox="0 0 71.000000 66.000000"
 preserveAspectRatio="xMidYMid meet">
<metadata>
Created by potrace 1.10, written by Peter Selinger 2001-2011
</metadata>
<g transform="translate(0.000000,66.000000) scale(0.100000,-0.100000)"
fill="#000000" stroke="none">
<path d="M244 648 c-6 -9 19 -9 61 2 27 7 26 8 -13 7 -24 0 -45 -4 -48 -9z"/>
<path d="M358 653 c12 -2 32 -2 45 0 12 2 2 4 -23 4 -25 0 -35 -2 -22 -4z"/>
<path d="M425 641 c-6 -6 -29 -11 -51 -12 -30 -2 -40 -7 -37 -16 5 -14 -12
-19 -20 -5 -2 4 -3 2 -1 -5 5 -20 -8 -22 -32 -7 -30 20 -50 13 -103 -36 -43
-41 -43 -55 0 -21 24 18 83 51 94 51 3 0 5 -8 5 -17 -1 -10 -19 -30 -41 -46
-22 -15 -37 -32 -34 -37 4 -6 10 -8 14 -6 4 3 8 -5 8 -16 2 -15 -1 -18 -9 -10
-17 17 -66 -26 -78 -67 -13 -47 -13 -51 5 -51 9 0 15 -10 15 -26 0 -14 4 -23
9 -19 6 3 8 15 6 26 -3 13 0 19 8 16 7 -3 13 7 14 26 3 41 45 101 81 116 22 9
28 17 25 32 -4 15 0 19 21 19 29 0 35 -16 9 -23 -10 -3 -1 -5 20 -6 74 -2 128
-40 153 -108 9 -27 13 -32 14 -15 0 30 20 28 20 -3 0 -14 3 -25 8 -25 14 0 6
95 -11 121 -19 28 -15 54 9 63 8 3 12 2 9 -3 -3 -5 6 -26 20 -47 14 -20 25
-42 25 -49 0 -7 9 -15 19 -18 14 -3 18 -1 14 9 -3 8 -10 11 -15 8 -6 -4 -8 1
-4 13 8 25 -57 114 -89 121 -5 2 -20 12 -33 22 -12 11 -31 20 -42 20 -11 0
-20 7 -20 15 0 22 29 18 79 -10 24 -14 45 -24 47 -22 6 6 -92 57 -108 57 -8 0
-18 -4 -23 -9z m18 -53 c32 -8 37 -12 26 -24 -17 -21 -2 -30 18 -12 15 13 20
14 30 3 10 -11 7 -15 -16 -23 -23 -8 -34 -6 -57 9 -16 10 -41 19 -55 19 -24 0
-39 16 -39 41 0 9 14 7 93 -13z m-90 -30 c4 -14 -1 -18 -22 -18 -15 0 -32 -5
-38 -11 -7 -7 -9 -3 -6 15 3 14 9 23 13 21 5 -3 11 -2 14 3 9 15 34 9 39 -10z
m97 -54 c0 -8 2 -14 4 -14 2 0 13 -3 23 -7 17 -6 17 -6 0 14 -17 20 -17 20 5
19 24 -2 26 -19 6 -43 -8 -10 -15 -10 -31 2 -19 13 -34 60 -15 49 4 -3 8 -12
8 -20z m-230 -63 c0 -12 -20 -25 -27 -18 -7 7 6 27 18 27 5 0 9 -4 9 -9z"/>
<path d="M590 552 c0 -5 10 -17 22 -28 l21 -19 -18 28 c-18 28 -25 33 -25 19z"/>
<path d="M152 508 c-8 -8 -8 -15 -1 -24 8 -10 5 -13 -15 -11 -14 1 -25 -2 -25
-7 0 -5 -5 -12 -12 -16 -6 -4 -14 -32 -17 -61 -4 -43 -2 -55 13 -65 16 -12 17
-18 7 -39 -10 -21 -9 -32 3 -55 19 -36 19 -41 1 -34 -8 3 -17 1 -20 -5 -9 -13
15 -51 31 -51 7 0 13 -4 13 -10 0 -5 5 -10 12 -10 6 0 2 10 -9 22 -26 30 -40
53 -25 44 19 -11 23 13 7 43 -19 37 -19 41 0 41 25 0 20 61 -6 67 -18 5 -20
11 -14 40 12 67 23 84 48 79 20 -3 24 0 23 17 -1 14 4 21 12 19 8 -1 12 3 10
10 -6 17 -22 20 -36 6z"/>
<path d="M636 480 c3 -14 11 -32 16 -40 6 -10 7 -7 2 10 -3 14 -11 32 -16 40
-6 10 -7 7 -2 -10z"/>
<path d="M310 449 c-39 -16 -59 -39 -66 -75 -3 -19 -11 -34 -18 -34 -7 0 -7
-3 -1 -8 6 -4 18 -24 29 -44 21 -43 74 -69 121 -60 16 3 38 5 47 6 9 0 14 4
12 8 -3 5 4 20 15 34 37 47 21 133 -31 165 -29 18 -75 21 -108 8z m83 -44 c-4
-15 -66 -12 -71 3 -3 10 6 13 34 10 22 -2 38 -7 37 -13z m-82 -38 c-13 -21
-13 -22 6 -4 27 23 59 21 77 -5 9 -12 16 -18 16 -12 0 5 -5 15 -11 21 -12 12
-5 33 11 33 4 0 13 -14 19 -31 8 -24 7 -39 -4 -66 -8 -19 -19 -32 -24 -29 -5
4 -12 2 -16 -4 -19 -31 -97 8 -109 55 -8 33 21 92 37 76 9 -9 8 -17 -2 -34z"/>
<path d="M386 314 c-4 -9 -4 -19 -1 -22 3 -3 5 0 5 7 0 7 5 9 12 5 6 -4 8 -3
4 4 -3 5 0 13 6 15 8 4 7 6 -3 6 -9 1 -20 -6 -23 -15z"/>
<path d="M574 407 c-8 -9 -7 -16 2 -25 20 -18 6 -40 -28 -44 -25 -2 -32 -10
-43 -40 -11 -32 -10 -38 2 -38 8 0 11 -5 8 -10 -4 -6 -10 -8 -14 -6 -3 3 -7
-4 -7 -14 0 -11 6 -22 14 -25 7 -2 10 -1 7 4 -9 16 13 23 35 11 17 -9 19 -14
9 -26 -22 -27 2 -14 38 20 29 29 36 43 38 83 4 55 -9 87 -32 79 -9 -4 -13 -1
-10 6 2 7 10 12 16 11 17 -4 13 14 -5 21 -19 7 -17 8 -30 -7z m41 -93 c-10
-71 -23 -92 -51 -86 -13 2 -27 8 -30 13 -3 5 0 8 7 7 8 -2 19 16 28 42 12 38
34 68 50 70 2 0 0 -21 -4 -46z"/>
<path d="M663 345 c0 -44 2 -61 4 -37 2 23 2 59 0 80 -2 20 -4 1 -4 -43z"/>
<path d="M186 295 c-3 -8 -15 -15 -27 -15 -20 0 -20 -1 5 -46 18 -32 24 -54
19 -72 -4 -18 -3 -23 6 -18 6 4 8 12 5 18 -4 7 -2 8 4 4 8 -4 8 -15 2 -31 -6
-16 -6 -27 2 -31 6 -4 8 -3 4 4 -3 6 -2 13 4 17 5 3 10 1 10 -6 0 -8 6 -7 18
3 26 24 111 2 118 -29 6 -24 19 -30 29 -14 3 5 -2 17 -11 26 -10 9 -17 30 -16
46 0 23 -4 29 -19 29 -11 0 -33 7 -49 15 -27 14 -29 14 -23 -1 5 -14 3 -14
-15 -3 -11 7 -20 20 -20 28 0 9 -9 33 -20 54 -14 26 -22 33 -26 22z m70 -127
c10 -12 13 -18 7 -14 -7 4 -13 2 -13 -3 0 -23 -49 8 -50 32 0 16 38 6 56 -15z"/>
<path d="M447 214 c-15 -13 -35 -24 -43 -24 -14 0 -14 -2 0 -16 22 -22 22 -66
-1 -57 -13 5 -15 2 -10 -11 4 -10 7 -20 7 -22 0 -2 7 -4 15 -4 9 0 15 9 15 24
0 16 12 31 40 50 34 22 70 27 70 8 0 -11 -67 -67 -80 -67 -7 0 -15 -7 -18 -15
-3 -12 -2 -12 8 -3 7 6 18 9 24 7 13 -5 61 38 77 68 7 12 6 18 -2 18 -7 0 -9
9 -6 23 5 19 4 20 -6 5 -12 -15 -14 -15 -34 0 -11 10 -22 22 -24 29 -3 7 -14
3 -32 -13z"/>
<path d="M376 155 c-19 -15 -19 -15 6 -13 16 1 24 7 21 15 -6 15 -4 16 -27 -2z"/>
<path d="M570 121 c0 -6 -10 -16 -22 -21 -16 -6 -18 -9 -7 -9 19 -1 45 26 35
36 -3 3 -6 1 -6 -6z"/>
<path d="M305 70 c3 -5 15 -10 26 -10 11 0 17 5 14 10 -3 6 -15 10 -26 10 -11
0 -17 -4 -14 -10z"/>
<path d="M230 51 c0 -5 9 -11 20 -14 13 -3 18 -1 13 6 -5 8 -2 8 8 0 10 -8 25
-10 45 -4 l29 8 -40 6 c-54 9 -75 9 -75 -2z"/>
</g>
</svg>
